<?xml version="1.0" standalone="no"?>
<!DOCTYPE svg PUBLIC "-//W3C//DTD SVG 20010904//EN"
 "http://www.w3.org/TR/2001/REC-SVG-20010904/DTD/svg10.dtd">
<svg version="1.0" xmlns="http://www.w3.org/2000/svg"
 width="300.000000pt" height="300.000000pt" viewBox="0 0 300.000000 300.000000"
 preserveAspectRatio="xMidYMid meet">
<metadata>
Created by potrace 1.10, written by Peter Selinger 2001-2011
</metadata>
<g transform="translate(0.000000,300.000000) scale(0.100000,-0.100000)"
fill="#000000" stroke="none">
<path d="M1401 2482 c-22 -22 -31 -42 -36 -84 -8 -63 12 -238 28 -238 5 0 7
10 3 23 -3 12 -9 63 -12 112 -8 108 6 171 40 186 56 26 97 -44 124 -212 20
-125 32 -138 20 -22 -10 98 -43 205 -71 231 -39 35 -64 37 -96 4z"/>
<path d="M1343 2475 c-26 -18 -47 -102 -42 -168 4 -46 4 -46 -38 -62 -61 -24
-113 -87 -175 -215 -31 -63 -59 -125 -62 -136 -5 -17 11 -38 85 -109 l92 -87
16 38 c15 38 15 38 42 -181 16 -121 28 -238 28 -261 l1 -41 158 42 c86 23 209
54 272 70 63 15 118 31 122 34 7 6 -33 339 -48 401 l-6 25 25 -23 25 -23 50
53 c28 29 60 66 72 81 l22 27 -78 86 c-42 46 -98 102 -124 124 -53 45 -193
115 -198 100 -2 -5 2 -26 8 -46 10 -31 10 -39 -4 -52 -28 -28 -52 -4 -48 48 4
39 2 42 -17 37 -12 -3 -19 -1 -16 3 7 12 -22 146 -39 179 -15 28 -46 59 -46
46 0 -4 9 -22 20 -40 19 -30 50 -140 50 -179 0 -16 -5 -18 -45 -13 -50 7 -52
4 -31 -48 12 -29 12 -36 1 -45 -8 -7 -22 -10 -32 -8 -14 3 -18 14 -20 57 -2
66 -9 85 -28 77 -25 -9 -21 129 5 172 11 17 24 32 30 32 5 0 10 5 10 10 0 14
-12 12 -37 -5z m-5 -291 c2 -27 10 -57 19 -66 37 -41 101 -4 90 51 -6 26 -3
29 24 33 35 5 39 2 39 -32 0 -35 32 -64 59 -55 33 10 51 34 51 66 0 16 2 29 5
29 3 0 29 -12 58 -26 54 -27 257 -222 257 -246 0 -7 -23 -37 -50 -66 -44 -45
-54 -51 -71 -41 -15 8 -24 7 -36 -2 -12 -11 -14 -26 -9 -79 8 -73 15 -126 21
-155 2 -11 7 -54 11 -96 l6 -77 -33 -11 c-19 -6 -115 -31 -214 -56 -99 -25
-190 -49 -202 -54 -40 -18 -49 4 -67 159 -29 248 -36 294 -52 310 -14 13 -17
13 -28 -2 -7 -10 -17 -18 -23 -18 -10 0 -16 6 -95 87 l-47 48 32 75 c19 41 51
106 73 144 33 59 48 74 99 102 33 19 65 32 70 31 6 -2 11 -26 13 -53z"/>
<path d="M1272 1730 c0 -14 2 -19 5 -12 2 6 2 18 0 25 -3 6 -5 1 -5 -13z"/>
<path d="M1139 1725 c19 -29 20 -36 11 -165 -5 -74 -12 -153 -14 -176 l-5 -40
77 -38 c65 -32 74 -35 57 -16 -11 13 -39 31 -62 42 -49 21 -52 28 -42 88 4 25
10 95 14 157 l7 112 -32 33 c-32 32 -32 33 -11 3z"/>
<path d="M703 1025 c-29 -12 -33 -19 -35 -57 -2 -77 2 -132 13 -143 13 -13 29
12 29 47 0 20 8 32 30 43 17 9 30 23 30 31 0 13 -7 15 -35 10 -43 -8 -46 7 -5
24 31 13 54 42 43 54 -10 10 -35 6 -70 -9z"/>
<path d="M977 1029 c-9 -5 -24 -23 -31 -38 -14 -26 -13 -31 9 -64 l25 -36 -26
-30 c-25 -30 -25 -51 1 -51 20 0 65 58 65 84 0 13 -9 31 -20 41 -26 24 -25 35
7 60 39 32 15 60 -30 34z"/>
<path d="M1863 1029 c-17 -5 -34 -17 -37 -27 -5 -17 -9 -92 -7 -144 1 -34 29
-43 74 -24 40 16 49 27 37 45 -6 11 -15 11 -39 3 -42 -15 -43 11 -1 28 19 8
30 20 30 32 0 17 -5 19 -30 13 -38 -8 -41 12 -3 26 38 14 53 28 46 45 -6 16
-23 17 -70 3z"/>
<path d="M834 1022 c-41 -27 -70 -197 -34 -197 9 0 16 11 18 26 4 33 52 49 52
18 0 -49 35 -68 46 -25 3 12 0 52 -6 87 -15 82 -42 114 -76 91z m34 -75 c3
-22 -1 -27 -17 -27 -21 0 -26 15 -15 45 9 23 29 13 32 -18z"/>
<path d="M1049 993 c0 -21 -2 -66 -5 -99 -4 -40 -1 -64 6 -69 15 -9 40 13 40
36 0 30 28 22 32 -8 2 -14 9 -28 15 -31 21 -6 34 47 31 127 -3 63 -6 76 -20
79 -15 3 -18 -4 -18 -47 0 -44 -3 -51 -19 -51 -17 0 -20 8 -23 47 -2 36 -7 49
-20 51 -15 3 -18 -4 -19 -35z m36 -83 c3 -5 1 -10 -4 -10 -6 0 -11 5 -11 10 0
6 2 10 4 10 3 0 8 -4 11 -10z"/>
<path d="M1222 1005 c-27 -33 -35 -86 -22 -135 24 -89 109 -75 124 21 17 104
-51 179 -102 114z m58 -91 c0 -47 -3 -55 -17 -52 -13 2 -19 15 -21 42 -4 47 3
66 23 66 12 0 15 -12 15 -56z"/>
<path d="M1369 1014 c-18 -22 -26 -171 -10 -187 27 -27 40 23 26 106 -5 34 -4
47 5 47 6 0 10 -10 9 -22 -4 -42 38 -131 64 -136 23 -5 38 38 40 108 2 112
-34 137 -43 29 -4 -45 -8 -58 -13 -44 -5 11 -16 40 -25 64 -19 50 -33 59 -53
35z m101 -140 c0 -8 -5 -12 -10 -9 -6 4 -8 11 -5 16 9 14 15 11 15 -7z"/>
<path d="M1572 1023 c-22 -9 -42 -61 -42 -112 0 -38 6 -56 24 -78 21 -24 27
-26 52 -18 40 14 55 49 51 117 -4 78 -35 111 -85 91z m42 -79 c9 -35 -2 -84
-19 -84 -15 0 -25 22 -25 55 0 56 32 76 44 29z"/>
<path d="M1708 1018 c-28 -10 -28 -10 -28 -103 0 -91 9 -120 31 -98 6 6 11 22
13 36 2 17 15 35 37 50 27 18 35 30 37 62 5 58 -26 77 -90 53z m50 -55 c-4
-22 -38 -30 -38 -10 0 14 13 24 33 26 5 1 7 -7 5 -16z"/>
<path d="M1984 1020 c-17 -7 -22 -20 -27 -70 -3 -35 -3 -78 0 -97 6 -33 8 -35
37 -29 66 13 116 96 94 157 -15 45 -54 59 -104 39z m64 -78 c3 -23 -22 -62
-40 -62 -4 0 -8 21 -8 46 0 41 2 45 23 42 14 -2 23 -11 25 -26z"/>
<path d="M2123 1020 c-27 -11 -30 -30 -5 -36 27 -8 18 -121 -11 -145 -20 -16
-21 -18 -4 -24 25 -10 84 3 91 21 3 8 -1 17 -10 21 -14 5 -15 16 -9 66 3 33
13 67 21 75 28 27 -23 42 -73 22z"/>
<path d="M2251 1004 c-22 -28 -45 -116 -40 -153 6 -36 28 -37 40 -3 13 37 49
51 49 19 0 -32 15 -51 34 -44 29 11 13 152 -21 189 -22 25 -38 23 -62 -8z m47
-57 c3 -22 -1 -27 -17 -27 -23 0 -24 3 -15 38 8 30 28 23 32 -11z"/>
<path d="M574 673 c9 -55 9 -57 5 -68 -2 -5 1 -12 6 -15 11 -5 40 48 51 94 5
22 4 28 -7 24 -8 -3 -15 -14 -17 -26 -4 -27 -22 -19 -22 9 0 10 -5 19 -11 19
-7 0 -9 -13 -5 -37z"/>
<path d="M680 691 c-26 -49 1 -127 37 -105 22 13 30 88 12 110 -16 20 -36 18
-49 -5z m40 -47 c0 -24 -4 -34 -12 -32 -24 8 -22 68 2 68 5 0 10 -16 10 -36z"/>
<path d="M796 703 c-11 -11 -6 -89 6 -101 36 -36 78 12 62 70 -14 48 -33 47
-24 -2 7 -41 0 -57 -21 -44 -7 4 -9 21 -6 40 5 32 -3 51 -17 37z"/>
<path d="M928 699 c-14 -7 -17 -20 -14 -60 4 -56 14 -74 23 -41 7 28 19 28 26
1 3 -12 10 -18 16 -14 8 4 8 12 1 25 -8 14 -7 25 2 40 23 36 -16 72 -54 49z
m42 -23 c0 -2 -7 -9 -15 -16 -12 -10 -15 -10 -15 4 0 9 7 16 15 16 8 0 15 -2
15 -4z"/>
<path d="M1110 690 c-16 -29 -8 -91 12 -103 26 -17 48 9 48 57 0 62 -37 89
-60 46z m40 -46 c0 -24 -4 -34 -12 -32 -24 8 -22 68 2 68 5 0 10 -16 10 -36z"/>
<path d="M1226 698 c-12 -38 -15 -65 -10 -85 8 -31 22 -29 26 5 l4 27 12 -28
c7 -16 18 -27 25 -25 15 6 23 118 7 118 -5 0 -10 -16 -10 -35 0 -19 -4 -35
-10 -35 -5 0 -10 9 -10 19 0 41 -25 69 -34 39z"/>
<path d="M1350 650 c0 -64 9 -72 51 -50 27 15 24 33 -6 28 -24 -5 -25 -3 -25
38 0 24 -4 44 -10 44 -6 0 -10 -27 -10 -60z"/>
<path d="M1455 701 c-3 -5 -1 -12 5 -16 14 -9 12 -72 -2 -78 -24 -8 1 -19 27
-13 19 5 24 10 17 19 -11 15 -12 77 0 77 4 0 8 5 8 10 0 13 -47 13 -55 1z"/>
<path d="M1557 703 c-11 -10 -8 -113 3 -113 6 0 10 11 10 25 0 33 16 32 24 -1
4 -14 12 -24 19 -21 15 5 22 117 7 117 -5 0 -10 -16 -10 -36 0 -41 -15 -38
-23 6 -6 29 -17 37 -30 23z"/>
<path d="M1696 694 c-20 -20 -21 -93 -2 -100 17 -7 56 12 56 27 0 7 -10 9 -25
5 -30 -8 -34 10 -5 19 11 3 20 11 20 16 0 6 -9 7 -20 4 -11 -3 -20 -2 -20 3 0
6 11 13 25 16 14 4 25 11 25 16 0 16 -37 12 -54 -6z"/>
<path d="M1870 689 c-33 -61 10 -142 50 -94 11 13 8 15 -14 15 -23 0 -26 4
-26 35 0 24 5 35 15 35 9 0 12 -6 9 -15 -4 -8 -1 -15 5 -15 18 0 25 29 11 45
-17 21 -37 19 -50 -6z"/>
<path d="M1970 650 c0 -64 9 -72 51 -50 27 15 24 33 -6 28 -24 -5 -25 -3 -25
38 0 24 -4 44 -10 44 -6 0 -10 -27 -10 -60z"/>
<path d="M2093 698 c-19 -25 -23 -52 -12 -85 19 -58 69 -35 69 32 0 52 -34 83
-57 53z m31 -34 c8 -20 -2 -54 -15 -54 -5 0 -9 16 -9 35 0 37 13 47 24 19z"/>
<path d="M2206 694 c-20 -19 -20 -25 -2 -50 13 -17 12 -21 -1 -37 -19 -20 -13
-30 10 -21 23 8 30 39 15 63 -10 16 -10 23 0 33 6 6 12 16 12 20 0 13 -17 9
-34 -8z"/>
<path d="M2303 702 c-16 -10 -25 -82 -13 -101 7 -12 13 -13 34 -3 35 16 34 36
-1 28 l-28 -6 23 16 c12 9 22 21 22 26 0 5 -10 7 -22 3 -22 -6 -22 -6 -4 9 11
9 23 16 28 16 4 0 8 5 8 10 0 12 -30 13 -47 2z"/>
<path d="M2398 699 c-22 -13 -23 -29 -2 -29 11 0 14 -5 10 -16 -7 -19 3 -64
15 -64 5 0 9 20 9 45 0 31 5 47 15 51 8 4 15 10 15 15 0 12 -41 11 -62 -2z"/>
</g>
</svg>
